<?xml version="1.0" standalone="no"?>
<!DOCTYPE svg PUBLIC "-//W3C//DTD SVG 20010904//EN"
 "http://www.w3.org/TR/2001/REC-SVG-20010904/DTD/svg10.dtd">
<svg version="1.0" xmlns="http://www.w3.org/2000/svg"
 width="2896.000000pt" height="2896.000000pt" viewBox="0 0 2896.000000 2896.000000"
 preserveAspectRatio="xMidYMid meet">
<metadata>
Created by potrace 1.11, written by Peter Selinger 2001-2013
</metadata>
<g transform="translate(0.000000,2896.000000) scale(0.100000,-0.100000)"
fill="#000000" stroke="none">
<path d="M17013 27480 c-53 -166 -173 -379 -311 -554 -120 -152 -397 -402
-619 -559 -336 -238 -665 -414 -1128 -601 -1115 -452 -1561 -665 -1970 -940
-179 -120 -306 -224 -445 -366 -260 -265 -395 -515 -441 -820 -16 -111 -19
-188 -19 -677 0 -355 4 -553 10 -553 5 0 12 12 16 28 33 154 95 334 148 437 9
17 16 41 16 54 0 29 126 220 202 306 157 179 408 390 635 534 358 228 873 487
1373 691 91 37 188 79 217 93 28 15 116 54 195 88 79 34 148 65 153 69 6 4 21
11 35 15 81 25 521 255 565 295 17 15 63 44 103 64 100 50 449 248 547 310
246 156 444 336 560 511 105 159 167 351 184 570 9 110 16 1105 9 1105 -2 0
-18 -45 -35 -100z"/>
<path d="M14330 23381 c-80 -48 -199 -121 -265 -161 -182 -110 -165 -63 -165
-443 0 -177 4 -328 8 -335 5 -7 46 -34 93 -61 46 -27 169 -99 273 -160 104
-61 198 -111 208 -111 15 0 529 293 566 322 9 8 12 86 10 351 l-3 340 -130 80
c-254 156 -438 267 -444 267 -3 0 -72 -40 -151 -89z m259 -37 c51 -31 90 -61
88 -67 -2 -7 -46 -37 -98 -68 -75 -46 -97 -55 -112 -47 -56 29 -188 120 -183
125 17 18 184 112 197 113 10 0 58 -25 108 -56z m-259 -165 c52 -34 89 -64 84
-69 -17 -16 -199 -123 -209 -123 -14 0 -205 113 -205 121 0 11 203 132 221
132 9 0 58 -27 109 -61z m497 20 c100 -60 133 -83 133 -92 0 -11 -181 -127
-199 -127 -11 0 -112 60 -205 122 -8 5 -6 12 4 22 18 18 180 116 191 116 5 0
39 -18 76 -41z m-759 -205 c53 -31 100 -61 104 -67 11 -18 10 -245 -2 -252 -9
-5 -151 78 -192 113 -15 13 -18 33 -18 139 0 67 2 123 6 123 3 0 49 -25 102
-56z m523 -316 c54 -33 99 -64 99 -68 0 -12 -32 -35 -122 -90 l-87 -53 -81 49
c-90 55 -137 90 -130 97 20 19 198 127 209 127 7 0 58 -28 112 -62z m-515 -25
c49 -31 92 -61 96 -67 10 -15 10 -224 0 -230 -4 -2 -53 21 -107 52 l-100 57
-3 123 c-2 96 0 122 11 122 7 0 53 -25 103 -57z m286 -179 l88 -56 0 -114 c0
-63 -3 -114 -7 -114 -3 0 -51 26 -105 58 l-98 57 0 119 c0 138 -11 133 122 50z"/>
<path d="M16914 23345 c-6 -11 -17 -44 -24 -74 -16 -70 -71 -205 -109 -270
-17 -28 -42 -76 -57 -107 -82 -174 -374 -481 -659 -694 -141 -106 -345 -238
-550 -358 -130 -75 -528 -262 -655 -308 -36 -12 -114 -43 -174 -68 -60 -26
-148 -59 -195 -75 -97 -33 -236 -88 -329 -132 -35 -16 -67 -29 -72 -29 -4 0
-36 -13 -71 -29 -35 -16 -109 -49 -164 -74 -196 -89 -262 -120 -425 -201 -91
-46 -194 -101 -230 -124 -36 -23 -94 -58 -130 -78 -36 -21 -93 -58 -127 -83
-34 -25 -84 -62 -112 -81 -322 -222 -509 -409 -675 -673 -87 -140 -155 -327
-175 -484 -9 -71 -18 -853 -12 -1053 l3 -85 13 55 c24 104 105 295 169 394 20
31 36 59 36 62 0 3 19 31 42 62 292 393 669 680 1343 1021 178 90 283 139 620
291 153 69 240 106 305 130 80 30 248 103 290 125 14 8 108 53 210 100 102 48
190 91 195 95 6 4 60 33 120 65 61 32 115 61 120 65 6 4 59 33 119 64 60 31
123 67 140 80 17 12 103 62 191 111 272 150 407 237 550 356 266 220 399 428
471 734 14 59 17 156 21 630 2 308 3 583 1 610 -3 43 -5 47 -14 30z"/>
<path d="M14425 19322 c-22 -9 -236 -134 -475 -278 -239 -144 -493 -295 -565
-336 -71 -42 -197 -115 -280 -164 -82 -48 -190 -110 -240 -139 -49 -28 -178
-102 -285 -165 -107 -62 -357 -206 -555 -320 -198 -114 -475 -274 -615 -355
-244 -141 -715 -413 -980 -565 -69 -39 -133 -80 -142 -92 -17 -19 -18 -150
-18 -2432 0 -1914 3 -2416 13 -2429 6 -9 37 -31 69 -49 31 -18 121 -72 200
-119 150 -89 195 -116 738 -431 184 -107 508 -295 720 -418 212 -123 453 -263
535 -311 127 -74 843 -489 1100 -638 44 -26 237 -139 429 -251 389 -227 403
-232 487 -190 24 13 150 84 279 160 329 191 786 457 1255 730 220 128 468 272
550 320 140 82 1093 635 1215 705 236 136 511 296 588 343 52 31 120 73 152
92 31 19 65 41 74 49 15 12 16 207 16 2442 l0 2428 -117 69 c-65 38 -226 131
-358 207 -132 76 -368 212 -525 303 -157 90 -348 200 -425 245 -77 44 -176
101 -220 127 -44 26 -118 69 -165 95 -47 26 -152 87 -235 135 -82 48 -249 145
-370 215 -121 70 -249 144 -285 165 -36 21 -200 117 -365 213 -165 96 -455
268 -645 382 -493 298 -478 291 -555 257z m460 -878 c215 -124 410 -237 435
-251 25 -14 86 -49 135 -78 50 -29 155 -90 234 -136 80 -46 146 -89 148 -96 2
-6 -81 -62 -189 -126 -232 -137 -793 -465 -1007 -588 l-153 -88 -49 24 c-93
48 -509 300 -786 477 -383 245 -487 314 -487 323 -1 6 49 38 109 73 61 34 191
110 290 167 573 335 902 523 915 524 9 1 191 -101 405 -225z m-2230 -979 c136
-79 662 -381 915 -528 124 -71 247 -143 273 -160 47 -29 48 -31 30 -47 -10
-10 -94 -62 -188 -115 -303 -174 -836 -480 -997 -574 -87 -50 -162 -91 -167
-91 -5 0 -96 50 -203 111 -276 159 -690 397 -928 534 -113 64 -213 125 -224
135 -18 17 -13 21 125 103 79 46 187 109 239 139 52 30 185 107 295 170 110
64 216 125 237 136 20 11 125 72 235 135 109 63 205 116 213 119 17 6 23 3
145 -67z m4032 -61 c120 -69 297 -171 393 -227 688 -396 733 -423 728 -439 -2
-6 -132 -85 -288 -175 -291 -168 -852 -491 -994 -572 l-79 -45 -46 25 c-42 23
-182 103 -1018 586 -167 96 -303 178 -303 183 0 4 6 12 13 18 13 11 268 160
577 337 107 62 272 156 365 210 94 54 219 127 279 162 61 35 120 63 132 63 12
0 120 -57 241 -126z m-5639 -1278 c153 -89 265 -154 662 -383 41 -23 174 -100
295 -171 l220 -127 3 -785 c1 -452 -2 -788 -7 -793 -5 -5 -43 11 -92 39 -46
26 -255 146 -464 267 -209 120 -470 271 -580 334 -110 64 -208 122 -217 131
-17 14 -18 65 -18 797 0 692 2 795 17 795 2 0 83 -47 181 -104z m3561 -312
c237 -142 343 -210 344 -220 1 -7 -289 -194 -343 -221 -9 -5 -41 -23 -73 -42
l-58 -33 -37 25 c-51 34 -316 206 -374 242 -27 17 -47 34 -45 40 2 5 32 27 68
49 221 136 385 236 388 236 3 0 61 -34 130 -76z m-494 -427 c94 -60 185 -119
202 -131 18 -11 33 -26 33 -31 0 -10 -461 -297 -487 -303 -12 -3 -453 247
-481 273 -17 16 -18 15 253 180 274 168 254 158 285 138 14 -9 102 -66 195
-126z m1231 -23 c140 -86 251 -160 249 -165 -14 -21 -477 -301 -493 -297 -9 3
-91 53 -182 112 -91 60 -198 129 -237 154 -40 26 -72 51 -70 55 2 7 465 296
476 297 2 0 118 -70 257 -156z m-1790 -419 c128 -75 235 -142 238 -151 9 -24
7 -592 -2 -598 -8 -5 -438 260 -474 292 -16 14 -18 41 -18 304 0 216 3 288 12
288 6 0 116 -61 244 -135z m994 -92 c33 -21 60 -41 60 -45 0 -10 -89 -66 -116
-74 -21 -6 -134 57 -134 75 0 12 103 80 123 81 4 0 34 -17 67 -37z m-175 -109
c30 -20 55 -40 55 -44 0 -4 -29 -27 -65 -50 l-65 -42 -65 38 c-36 21 -65 43
-65 49 0 12 118 85 138 85 7 0 37 -16 67 -36z m360 -5 c36 -22 65 -44 65 -47
0 -11 -115 -82 -131 -82 -8 0 -42 18 -77 41 -50 33 -60 44 -51 55 12 15 109
73 122 74 4 0 37 -18 72 -41z m-467 -167 c17 -23 16 -151 -2 -158 -17 -6 -121
59 -130 81 -8 21 -8 119 0 139 6 14 14 12 63 -15 31 -17 62 -38 69 -47z m272
-157 c90 -54 90 -56 17 -104 -35 -22 -68 -41 -75 -41 -18 0 -132 74 -132 86 0
9 116 94 129 94 2 0 29 -16 61 -35z m-326 -30 c61 -39 66 -48 66 -115 0 -82
-4 -85 -69 -49 -31 17 -62 38 -68 47 -8 9 -13 45 -13 84 0 81 6 83 84 33z
m-672 -190 c128 -80 239 -153 246 -162 14 -19 18 -548 4 -557 -5 -3 -60 26
-124 63 -63 37 -172 100 -242 140 l-126 72 0 295 c0 162 2 294 5 294 2 0 109
-65 237 -145z m857 75 l61 -41 0 -69 c0 -49 -4 -70 -12 -70 -7 0 -38 15 -68
33 l-55 33 -3 77 c-2 45 1 77 7 77 5 0 37 -18 70 -40z m-64 -167 c134 -79 149
-85 169 -73 52 33 256 151 270 156 14 5 206 -102 206 -116 0 -6 11 1 -265
-172 -121 -76 -226 -138 -233 -138 -11 0 -484 289 -502 307 -3 2 2 9 10 14
134 83 177 109 187 109 6 0 77 -39 158 -87z m-3252 -264 c299 -173 363 -211
652 -384 325 -196 459 -278 480 -295 13 -11 15 -104 15 -786 0 -735 -1 -774
-18 -774 -18 0 -248 131 -957 543 -104 61 -237 138 -295 172 l-105 62 -3 779
c-1 428 0 785 3 793 7 18 8 17 228 -110z m3072 -30 c99 -61 199 -125 223 -141
l42 -29 0 -264 c0 -153 -4 -265 -9 -265 -14 0 -475 271 -483 284 -9 13 -11
540 -2 549 4 3 16 0 28 -8 11 -7 102 -64 201 -126z m-670 -308 c28 -15 160
-92 295 -171 135 -78 277 -161 315 -183 114 -65 105 -45 105 -244 0 -135 -3
-175 -13 -179 -7 -2 -128 61 -268 142 -478 276 -624 361 -707 409 -51 29 -82
54 -80 62 3 14 273 190 293 192 6 0 33 -12 60 -28z m2190 -57 c153 -96 159
-100 152 -116 -2 -8 -132 -88 -288 -178 -156 -90 -384 -222 -507 -293 -123
-71 -231 -130 -240 -131 -15 -1 -17 17 -20 181 l-2 181 32 20 c393 235 724
422 738 417 8 -4 69 -40 135 -81z m-2666 -778 c91 -57 218 -136 281 -176 63
-40 284 -178 490 -308 206 -129 383 -241 393 -250 16 -14 17 -62 17 -744 0
-465 -4 -728 -10 -728 -5 0 -67 33 -137 73 -71 41 -220 127 -333 192 -113 65
-209 121 -215 125 -5 4 -154 90 -330 190 -176 101 -328 190 -337 198 -17 14
-18 64 -18 774 0 703 1 758 17 758 9 0 91 -47 182 -104z"/>
<path d="M9506 14732 c-2 -4 -1 -14 4 -22 7 -11 12 -12 21 -3 6 6 8 16 5 22
-8 13 -23 14 -30 3z"/>
<path d="M10897 9723 c-4 -3 -7 -435 -7 -960 l0 -954 47 -20 c55 -23 175 -62
253 -81 76 -18 339 -17 405 1 173 49 297 157 387 336 54 106 63 157 63 340 0
160 -2 175 -28 252 -68 197 -209 332 -382 364 -116 22 -294 -5 -431 -66 -31
-14 -63 -25 -70 -25 -12 0 -14 68 -14 404 0 359 -2 405 -16 410 -21 8 -199 8
-207 -1z m708 -952 c77 -38 140 -110 175 -200 28 -70 38 -241 20 -334 -26
-139 -124 -272 -237 -325 -54 -25 -67 -27 -193 -27 -108 1 -146 5 -190 20
l-55 20 -3 389 c-1 268 1 393 9 402 6 7 43 25 82 40 167 64 283 68 392 15z"/>
<path d="M13055 9718 c-3 -7 -4 -458 -3 -1003 l3 -990 110 0 110 0 3 285 2
284 27 28 c15 15 34 28 43 28 11 0 112 -124 259 -315 l242 -315 139 0 c114 0
140 3 140 14 0 8 -125 174 -279 369 -306 389 -315 402 -307 416 7 10 475 417
507 440 10 7 19 17 19 22 0 5 -67 9 -150 9 l-150 0 -172 -158 c-273 -248 -300
-272 -309 -266 -5 3 -9 263 -9 579 0 513 -2 573 -16 579 -31 12 -204 7 -209
-6z"/>
<path d="M17895 9718 c-3 -7 -4 -458 -3 -1003 l3 -990 110 0 110 0 0 1000 0
1000 -108 3 c-80 2 -109 -1 -112 -10z"/>
<path d="M20013 9723 c-10 -4 -13 -203 -13 -951 0 -521 4 -952 8 -959 13 -20
154 -71 292 -105 34 -8 114 -13 210 -13 169 0 242 16 340 73 240 139 370 485
300 799 -52 231 -207 397 -405 434 -119 22 -299 -6 -440 -70 -35 -16 -66 -27
-69 -23 -3 3 -6 186 -6 408 0 357 -2 403 -16 408 -19 7 -183 7 -201 -1z m702
-952 c110 -55 183 -166 205 -316 35 -230 -63 -451 -238 -537 -65 -32 -69 -33
-202 -33 -108 1 -146 5 -190 20 l-55 20 -3 389 c-1 248 1 393 8 401 5 6 41 24
79 39 165 65 288 70 396 17z"/>
<path d="M16913 9665 c-197 -36 -373 -131 -511 -279 -79 -85 -113 -136 -167
-248 -70 -145 -96 -262 -102 -454 -8 -233 20 -391 99 -549 77 -155 227 -300
381 -370 123 -56 198 -69 402 -70 123 0 209 5 245 13 136 33 210 54 280 81 70
26 75 31 78 60 4 39 -14 161 -25 172 -5 5 -33 -3 -63 -17 -151 -70 -314 -106
-485 -107 -151 -1 -228 18 -334 80 -134 80 -246 246 -286 423 -24 105 -30 260
-16 374 48 375 236 610 544 681 124 28 358 15 528 -30 16 -4 29 -2 36 7 15 18
61 160 56 174 -4 11 -147 47 -253 64 -89 14 -320 11 -407 -5z"/>
<path d="M7885 9638 c-3 -7 -4 -440 -3 -963 l3 -950 113 -3 c61 -1 113 -1 114
0 1 2 5 179 8 393 l5 390 146 3 c140 2 146 2 166 -20 38 -41 164 -238 309
-483 79 -132 150 -250 159 -262 15 -22 23 -23 145 -23 78 0 131 4 135 10 7 12
-7 38 -143 260 -114 185 -281 439 -328 497 -19 23 -34 46 -34 51 0 6 35 29 78
53 227 124 331 356 277 614 -35 166 -136 290 -299 370 -138 67 -193 75 -546
75 -231 0 -302 -3 -305 -12z m687 -227 c89 -35 142 -81 180 -158 31 -64 33
-73 33 -178 -1 -96 -4 -117 -26 -165 -35 -75 -111 -142 -192 -170 -50 -17 -94
-23 -228 -27 -92 -3 -178 -3 -193 1 l-26 6 0 354 c0 194 3 356 8 360 4 4 93 6
197 4 166 -4 197 -7 247 -27z"/>
<path d="M12455 9546 c-62 -27 -107 -109 -91 -168 20 -77 76 -122 152 -122 90
0 149 59 149 149 0 112 -109 185 -210 141z"/>
<path d="M14583 9020 c-69 -14 -160 -55 -202 -91 -83 -73 -115 -148 -115 -270
0 -65 4 -84 32 -142 55 -111 113 -154 351 -261 64 -28 139 -67 168 -86 121
-79 123 -204 5 -262 -41 -20 -62 -23 -152 -22 -112 1 -186 16 -297 60 -76 30
-78 29 -111 -55 -33 -80 -31 -86 41 -120 129 -61 198 -75 362 -76 157 0 196 7
297 55 57 27 122 94 150 158 30 66 32 230 4 282 -50 92 -140 170 -263 226 -43
20 -111 52 -152 70 -155 72 -226 154 -202 233 23 77 93 111 231 111 64 0 111
-7 174 -25 47 -14 90 -25 95 -25 11 0 63 136 59 156 -7 36 -245 95 -372 93
-33 -1 -80 -5 -103 -9z"/>
<path d="M18526 8992 c-15 -3 -16 -48 -14 -530 3 -526 3 -527 26 -577 63 -137
200 -203 397 -192 149 8 252 47 384 146 30 22 57 38 62 36 4 -3 20 -37 35 -75
31 -79 37 -83 125 -78 l54 3 0 630 0 630 -115 0 -115 0 -5 -475 -5 -474 -53
-38 c-120 -83 -288 -129 -397 -109 -64 12 -119 42 -138 74 -9 16 -13 151 -17
522 l-5 500 -101 5 c-56 3 -109 4 -118 2z"/>
<path d="M9400 8477 c0 -604 -2 -589 89 -678 87 -85 142 -104 306 -103 121 0
136 2 213 31 47 18 119 58 170 93 l87 61 37 -81 37 -81 73 3 73 3 0 630 0 630
-115 0 -115 0 -5 -475 -5 -475 -55 -37 c-68 -46 -185 -94 -265 -108 -115 -20
-221 9 -269 73 -21 28 -21 39 -24 528 l-3 499 -114 0 -115 0 0 -513z"/>
<path d="M12402 8358 l3 -633 112 -3 c110 -3 113 -2 118 20 3 13 4 298 3 633
l-3 610 -118 3 -117 3 2 -633z"/>
<path d="M7791 6814 c-180 -40 -328 -156 -407 -319 -70 -145 -79 -192 -79
-405 1 -176 2 -189 28 -265 75 -213 177 -314 475 -469 142 -75 203 -119 229
-170 22 -41 22 -141 0 -182 -37 -72 -135 -124 -233 -124 -77 0 -214 30 -273
59 -32 17 -88 50 -124 75 -37 25 -71 46 -76 46 -14 0 -20 -72 -27 -315 l-6
-220 24 -22 c31 -30 131 -66 253 -93 197 -43 487 -23 641 45 176 78 295 219
369 434 36 106 48 206 42 339 -8 188 -67 338 -177 450 -75 77 -141 122 -319
215 -162 84 -200 111 -238 168 -65 99 0 264 114 285 19 4 70 4 111 1 62 -5 91
-13 157 -46 44 -22 106 -60 139 -85 66 -52 83 -56 91 -23 6 28 25 359 25 444
l0 64 -85 40 c-141 66 -215 81 -415 85 -127 2 -193 -1 -239 -12z"/>
<path d="M15135 6814 c-38 -8 -117 -38 -175 -66 -93 -44 -115 -61 -195 -142
-124 -125 -203 -264 -259 -459 -122 -422 -91 -971 75 -1299 139 -274 348 -425
638 -458 110 -12 233 1 351 39 229 74 407 257 507 521 110 295 133 728 58
1094 -50 242 -146 431 -295 578 -65 64 -96 85 -182 127 -56 27 -135 57 -175
65 -89 20 -253 20 -348 0z m318 -285 c121 -40 204 -112 274 -237 121 -216 166
-700 98 -1037 -59 -290 -162 -463 -323 -542 -75 -37 -78 -38 -192 -38 -114 0
-117 1 -192 37 -139 69 -244 213 -298 408 -76 277 -79 674 -5 965 61 245 190
400 373 450 75 21 193 18 265 -6z"/>
<path d="M5585 6780 c-132 -3 -240 -7 -240 -8 0 -1020 2 -2320 3 -2329 2 -10
67 -13 286 -13 251 0 287 2 301 16 15 15 16 47 8 348 -4 182 -7 702 -7 1156 2
610 -1 827 -10 832 -6 4 -31 7 -56 6 -25 -1 -153 -5 -285 -8z"/>
<path d="M6590 6780 l-235 -5 0 -1170 0 -1170 289 1 c271 1 290 2 304 20 11
15 13 42 7 144 -4 69 -9 584 -10 1146 -1 562 -5 1026 -9 1033 -4 6 -29 10 -59
9 -29 -1 -158 -5 -287 -8z"/>
<path d="M10785 6781 l-310 -6 0 -85 c0 -47 7 -267 14 -490 11 -321 12 -544 3
-1075 -7 -456 -7 -674 0 -682 14 -17 519 -19 550 -2 20 11 20 17 16 432 l-3
422 36 3 c22 2 40 -2 47 -11 18 -22 170 -423 253 -666 27 -79 56 -155 65 -169
l16 -25 237 7 c130 4 259 11 286 14 44 6 50 10 53 32 1 14 -22 77 -54 145
-152 324 -355 811 -347 831 3 7 24 25 48 39 96 56 196 212 237 367 18 68 22
111 22 243 0 180 -15 258 -80 392 -67 141 -168 220 -334 263 -101 25 -270 30
-755 21z m525 -505 c71 -47 107 -162 89 -280 -12 -75 -37 -123 -88 -169 -47
-43 -103 -61 -191 -61 l-65 -1 3 265 c2 194 6 266 15 273 6 4 54 6 104 4 79
-4 99 -8 133 -31z"/>
<path d="M13146 6781 l-79 -6 2 -1158 c1 -638 5 -1165 8 -1173 4 -11 34 -14
140 -14 76 0 143 5 154 11 20 10 20 17 13 585 -5 381 -4 574 3 574 5 0 17 -8
25 -17 32 -38 282 -446 528 -863 73 -124 141 -240 152 -257 l20 -33 168 0
c238 0 236 -3 100 208 -212 329 -275 427 -361 567 -201 324 -309 508 -309 525
0 21 116 202 403 627 235 349 273 410 262 421 -11 11 -288 3 -311 -9 -12 -6
-36 -34 -53 -62 -394 -630 -576 -912 -607 -937 -8 -7 -17 -10 -20 -7 -8 7 -6
867 2 927 3 25 1 57 -5 73 -10 26 -12 27 -83 25 -40 -1 -109 -4 -152 -7z"/>
<path d="M16565 6781 l-80 -6 2 -85 c1 -47 4 -573 5 -1170 l3 -1085 512 0
c387 0 515 3 524 12 8 8 13 57 13 150 l1 138 -365 0 -365 0 -6 30 c-11 50 -10
865 2 1454 9 462 9 555 -3 562 -14 9 -111 9 -243 0z"/>
<path d="M17885 6783 c-82 -6 -99 -22 -90 -88 4 -27 10 -547 14 -1155 l6
-1105 147 0 c93 0 151 4 158 11 8 8 8 165 0 563 -6 304 -8 562 -5 572 4 11 12
18 18 16 19 -6 370 -578 612 -997 43 -74 85 -143 93 -152 13 -16 34 -18 147
-18 214 0 251 11 224 63 -7 12 -61 99 -122 192 -107 165 -131 202 -212 330
-251 394 -425 687 -425 717 0 28 102 186 529 818 72 107 131 202 131 212 0 27
-35 31 -182 21 l-133 -8 -50 -76 c-27 -42 -110 -173 -184 -290 -219 -349 -422
-659 -431 -659 -4 0 -11 8 -15 17 -3 10 -3 240 1 511 6 419 5 495 -7 503 -14
8 -101 9 -224 2z"/>
<path d="M20022 6783 l-103 -4 -14 -32 c-7 -18 -36 -122 -65 -232 -49 -191
-247 -922 -330 -1220 -21 -77 -64 -232 -95 -345 -31 -113 -74 -270 -97 -349
-27 -96 -37 -146 -30 -153 14 -14 268 -6 283 9 7 7 45 155 85 330 41 175 78
328 83 340 9 19 19 22 113 26 163 8 551 -2 559 -14 3 -6 16 -56 28 -112 63
-285 134 -574 144 -586 10 -11 37 -13 143 -8 154 8 188 17 181 50 -5 23 -111
437 -217 847 -33 129 -129 505 -211 835 -83 330 -156 606 -161 613 -10 12 -41
13 -296 5z m82 -320 c7 -17 67 -271 141 -598 24 -104 55 -241 70 -304 14 -63
24 -120 21 -128 -8 -19 -504 -19 -512 0 -4 11 218 924 247 1015 12 35 23 41
33 15z"/>
<path d="M21223 6783 l-373 -3 -17 -26 c-23 -35 -32 -226 -12 -250 13 -15 37
-16 251 -11 235 7 237 7 249 -14 8 -16 10 -290 9 -1023 -1 -550 -2 -1007 -1
-1014 2 -21 308 -13 322 8 6 9 8 46 5 90 -9 119 -20 1904 -12 1934 l7 28 240
-4 c230 -3 241 -2 255 17 11 15 14 48 12 145 l-3 125 -280 0 c-154 0 -448 -1
-652 -2z"/>
<path d="M22666 6781 c-69 -5 -81 -9 -97 -31 -10 -14 -39 -108 -64 -210 -46
-185 -120 -468 -154 -590 -11 -36 -38 -135 -61 -220 -23 -85 -55 -200 -71
-255 -15 -55 -51 -183 -78 -285 -28 -102 -73 -266 -101 -365 -86 -302 -102
-367 -92 -377 14 -14 268 -6 283 9 6 6 45 155 85 330 41 175 78 328 84 341 9
21 15 22 122 22 62 0 201 3 308 6 151 4 201 2 219 -8 21 -11 29 -31 51 -128
15 -63 51 -216 80 -340 28 -124 57 -231 63 -239 16 -18 295 -7 315 13 11 10 2
57 -48 257 -33 134 -69 278 -80 319 -84 312 -172 655 -295 1146 -79 314 -148
581 -154 593 -11 20 -19 21 -124 19 -62 -1 -148 -4 -191 -7z m108 -358 c9 -27
43 -169 77 -318 34 -148 79 -349 102 -445 22 -96 41 -188 41 -205 l1 -30 -253
-3 c-207 -2 -253 0 -258 11 -5 14 219 930 251 1025 9 25 24 11 39 -35z"/>
<path d="M8920 6754 c-7 -17 -6 -114 1 -282 6 -147 9 -633 7 -1137 -1 -484 1
-886 5 -892 6 -10 140 -13 611 -13 528 0 605 2 616 15 12 15 20 95 36 375 9
160 18 153 -176 140 -85 -6 -234 -10 -330 -8 l-175 3 -3 217 -2 218 22 5 c13
2 136 6 275 7 151 2 256 7 262 13 12 12 37 401 28 437 -4 15 -16 28 -29 31
-12 4 -136 2 -274 -4 -184 -8 -258 -8 -273 1 -20 10 -21 18 -21 198 0 133 4
192 12 200 9 9 90 12 304 12 251 0 293 2 304 15 19 23 37 440 20 460 -11 13
-97 15 -611 15 l-599 0 -10 -26z"/>
<path d="M5114 3567 c-2 -7 -3 -74 -2 -148 l3 -134 9204 -3 c6797 -1 9207 1
9217 9 19 15 20 259 2 277 -18 18 -18417 17 -18424 -1z"/>
</g>
</svg>
